<svg width="100" height="100" viewBox="0 0 100 100" fill="none" xmlns="http://www.w3.org/2000/svg">
<rect width="100" height="100" fill="#0B3F47"/>
<path d="M20.3245 50.28C19.9911 49.8333 19.6311 49.5233 19.2445 49.35C18.8578 49.17 18.4245 49.08 17.9445 49.08C17.0045 49.08 16.2811 49.4167 15.7745 50.09C15.2678 50.7633 15.0145 51.7233 15.0145 52.97C15.0145 53.63 15.0711 54.1967 15.1845 54.67C15.2978 55.1367 15.4645 55.5233 15.6845 55.83C15.9045 56.13 16.1745 56.35 16.4945 56.49C16.8145 56.63 17.1778 56.7 17.5845 56.7C18.1711 56.7 18.6811 56.5667 19.1145 56.3C19.5545 56.0333 19.9578 55.6567 20.3245 55.17V50.28ZM22.1045 43.27V58H21.0445C20.7911 58 20.6311 57.8767 20.5645 57.63L20.4045 56.4C19.9711 56.92 19.4778 57.34 18.9245 57.66C18.3711 57.98 17.7311 58.14 17.0045 58.14C16.4245 58.14 15.8978 58.03 15.4245 57.81C14.9511 57.5833 14.5478 57.2533 14.2145 56.82C13.8811 56.3867 13.6245 55.8467 13.4445 55.2C13.2645 54.5533 13.1745 53.81 13.1745 52.97C13.1745 52.2233 13.2745 51.53 13.4745 50.89C13.6745 50.2433 13.9611 49.6833 14.3345 49.21C14.7078 48.7367 15.1645 48.3667 15.7045 48.1C16.2511 47.8267 16.8645 47.69 17.5445 47.69C18.1645 47.69 18.6945 47.7967 19.1345 48.01C19.5811 48.2167 19.9778 48.5067 20.3245 48.88V43.27H22.1045ZM31.6959 51.83C31.6959 51.4167 31.6359 51.04 31.5159 50.7C31.4025 50.3533 31.2325 50.0567 31.0059 49.81C30.7859 49.5567 30.5159 49.3633 30.1959 49.23C29.8759 49.09 29.5125 49.02 29.1059 49.02C28.2525 49.02 27.5759 49.27 27.0759 49.77C26.5825 50.2633 26.2759 50.95 26.1559 51.83H31.6959ZM33.1359 56.58C32.9159 56.8467 32.6525 57.08 32.3459 57.28C32.0392 57.4733 31.7092 57.6333 31.3559 57.76C31.0092 57.8867 30.6492 57.98 30.2759 58.04C29.9025 58.1067 29.5325 58.14 29.1659 58.14C28.4659 58.14 27.8192 58.0233 27.2259 57.79C26.6392 57.55 26.1292 57.2033 25.6959 56.75C25.2692 56.29 24.9359 55.7233 24.6959 55.05C24.4559 54.3767 24.3359 53.6033 24.3359 52.73C24.3359 52.0233 24.4425 51.3633 24.6559 50.75C24.8759 50.1367 25.1892 49.6067 25.5959 49.16C26.0025 48.7067 26.4992 48.3533 27.0859 48.1C27.6725 47.84 28.3325 47.71 29.0659 47.71C29.6725 47.71 30.2325 47.8133 30.7459 48.02C31.2659 48.22 31.7125 48.5133 32.0859 48.9C32.4659 49.28 32.7625 49.7533 32.9759 50.32C33.1892 50.88 33.2959 51.52 33.2959 52.24C33.2959 52.52 33.2659 52.7067 33.2059 52.8C33.1459 52.8933 33.0325 52.94 32.8659 52.94H26.0959C26.1159 53.58 26.2025 54.1367 26.3559 54.61C26.5159 55.0833 26.7359 55.48 27.0159 55.8C27.2959 56.1133 27.6292 56.35 28.0159 56.51C28.4025 56.6633 28.8359 56.74 29.3159 56.74C29.7625 56.74 30.1459 56.69 30.4659 56.59C30.7925 56.4833 31.0725 56.37 31.3059 56.25C31.5392 56.13 31.7325 56.02 31.8859 55.92C32.0459 55.8133 32.1825 55.76 32.2959 55.76C32.4425 55.76 32.5559 55.8167 32.6359 55.93L33.1359 56.58ZM35.4823 58V47.87H36.5523C36.8056 47.87 36.9623 47.9933 37.0223 48.24L37.1523 49.28C37.5256 48.82 37.9456 48.4433 38.4123 48.15C38.8789 47.8567 39.4189 47.71 40.0323 47.71C40.7123 47.71 41.2623 47.9 41.6823 48.28C42.1089 48.66 42.4156 49.1733 42.6023 49.82C42.7489 49.4533 42.9356 49.1367 43.1623 48.87C43.3956 48.6033 43.6556 48.3833 43.9423 48.21C44.2289 48.0367 44.5323 47.91 44.8523 47.83C45.1789 47.75 45.5089 47.71 45.8423 47.71C46.3756 47.71 46.8489 47.7967 47.2623 47.97C47.6823 48.1367 48.0356 48.3833 48.3223 48.71C48.6156 49.0367 48.8389 49.44 48.9923 49.92C49.1456 50.3933 49.2223 50.9367 49.2223 51.55V58H47.4323V51.55C47.4323 50.7567 47.2589 50.1567 46.9123 49.75C46.5656 49.3367 46.0656 49.13 45.4123 49.13C45.1189 49.13 44.8389 49.1833 44.5723 49.29C44.3123 49.39 44.0823 49.54 43.8823 49.74C43.6823 49.94 43.5223 50.1933 43.4023 50.5C43.2889 50.8 43.2323 51.15 43.2323 51.55V58H41.4423V51.55C41.4423 50.7367 41.2789 50.13 40.9523 49.73C40.6256 49.33 40.1489 49.13 39.5223 49.13C39.0823 49.13 38.6756 49.25 38.3023 49.49C37.9289 49.7233 37.5856 50.0433 37.2723 50.45V58H35.4823ZM60.4137 47.87L54.7637 60.99C54.7037 61.1233 54.627 61.23 54.5337 61.31C54.447 61.39 54.3103 61.43 54.1237 61.43H52.8037L54.6537 57.41L50.4737 47.87H52.0137C52.167 47.87 52.287 47.91 52.3737 47.99C52.467 48.0633 52.5303 48.1467 52.5637 48.24L55.2737 54.62C55.3803 54.9 55.4703 55.1933 55.5437 55.5C55.637 55.1867 55.737 54.89 55.8437 54.61L58.4737 48.24C58.5137 48.1333 58.5803 48.0467 58.6737 47.98C58.7737 47.9067 58.8837 47.87 59.0037 47.87H60.4137ZM63.8662 47.87V58H62.0862V47.87H63.8662ZM64.2462 44.69C64.2462 44.8633 64.2095 45.0267 64.1362 45.18C64.0695 45.3267 63.9762 45.46 63.8562 45.58C63.7428 45.6933 63.6062 45.7833 63.4462 45.85C63.2928 45.9167 63.1295 45.95 62.9562 45.95C62.7828 45.95 62.6195 45.9167 62.4662 45.85C62.3195 45.7833 62.1895 45.6933 62.0762 45.58C61.9628 45.46 61.8728 45.3267 61.8062 45.18C61.7395 45.0267 61.7062 44.8633 61.7062 44.69C61.7062 44.5167 61.7395 44.3533 61.8062 44.2C61.8728 44.04 61.9628 43.9033 62.0762 43.79C62.1895 43.67 62.3195 43.5767 62.4662 43.51C62.6195 43.4433 62.7828 43.41 62.9562 43.41C63.1295 43.41 63.2928 43.4433 63.4462 43.51C63.6062 43.5767 63.7428 43.67 63.8562 43.79C63.9762 43.9033 64.0695 44.04 64.1362 44.2C64.2095 44.3533 64.2462 44.5167 64.2462 44.69ZM68.4709 49.34C68.6909 49.0933 68.9242 48.87 69.1709 48.67C69.4175 48.47 69.6775 48.3 69.9509 48.16C70.2309 48.0133 70.5242 47.9033 70.8309 47.83C71.1442 47.75 71.4809 47.71 71.8409 47.71C72.3942 47.71 72.8809 47.8033 73.3009 47.99C73.7275 48.17 74.0809 48.43 74.3609 48.77C74.6475 49.1033 74.8642 49.5067 75.0109 49.98C75.1575 50.4533 75.2309 50.9767 75.2309 51.55V58H73.4409V51.55C73.4409 50.7833 73.2642 50.19 72.9109 49.77C72.5642 49.3433 72.0342 49.13 71.3209 49.13C70.7942 49.13 70.3009 49.2567 69.8409 49.51C69.3875 49.7633 68.9675 50.1067 68.5809 50.54V58H66.7909V47.87H67.8609C68.1142 47.87 68.2709 47.9933 68.3309 48.24L68.4709 49.34ZM79.6232 49.34C79.8432 49.0933 80.0765 48.87 80.3232 48.67C80.5699 48.47 80.8299 48.3 81.1032 48.16C81.3832 48.0133 81.6765 47.9033 81.9832 47.83C82.2965 47.75 82.6332 47.71 82.9932 47.71C83.5465 47.71 84.0332 47.8033 84.4532 47.99C84.8799 48.17 85.2332 48.43 85.5132 48.77C85.7999 49.1033 86.0165 49.5067 86.1632 49.98C86.3099 50.4533 86.3832 50.9767 86.3832 51.55V58H84.5932V51.55C84.5932 50.7833 84.4165 50.19 84.0632 49.77C83.7165 49.3433 83.1865 49.13 82.4732 49.13C81.9465 49.13 81.4532 49.2567 80.9932 49.51C80.5399 49.7633 80.1199 50.1067 79.7332 50.54V58H77.9432V47.87H79.0132C79.2665 47.87 79.4232 47.9933 79.4832 48.24L79.6232 49.34Z" fill="white"/>
<line x1="10.0063" y1="34.5" x2="89.9999" y2="35.5126" stroke="white"/>
<line x1="10.0063" y1="69.5" x2="89.9999" y2="70.5126" stroke="white"/>
<g style="mix-blend-mode:color-burn">
<path d="M48.7455 27.5128C48.7455 29.401 49.4842 31.7863 48.0068 30.9316C46.2728 30.9316 44.6824 29.6496 44.6824 27.5128C44.6824 25.6247 46.0881 24.094 47.8221 24.094C49.556 24.094 48.7455 25.6247 48.7455 27.5128Z" fill="#D9D9D9"/>
<path d="M50.777 29.8632C50.777 30.6893 49.4842 31.5726 48.3761 31.359C47.2541 31.359 45.2365 30.0769 46.1599 29.8632C46.1599 29.0372 47.4388 28.3675 48.5608 28.3675C49.6828 28.3675 51.1464 27.5128 50.777 29.8632Z" fill="#D9D9D9"/>
<path d="M46.714 25.1624C46.714 27.0505 46.3446 28.1538 44.9329 28.3657C45.2365 30.0769 43.759 26.4444 43.5743 24.9487C43.5743 23.0605 43.3238 20.677 44.1284 20.6752C44.6824 23.2393 45.1706 23.6685 46.714 25.1624Z" fill="#D9D9D9"/>
<path d="M50.7432 28.7945C50.1891 29.6492 49.795 29.6492 49.081 29.6492C48.367 29.6492 47.7882 28.8839 47.7882 27.9398C47.7882 26.9958 47.9977 25.3757 48.7117 25.3757C48.1914 22.8119 51.1126 29.0082 50.7432 28.7945Z" fill="#D9D9D9"/>
<path d="M48.0068 22.5983C47.341 24.6025 46.9367 19.6267 46.3446 19.1795C45.6311 18.8622 45.4211 17.6165 46.3446 15.7606C47.833 12.7692 48.3761 11.7008 48.9302 12.7692C50.223 14.0512 47.268 17.0427 48.0068 22.5983Z" fill="#D9D9D9"/>
<path d="M52.822 16.188C48.9302 20.4615 49.4842 17.8974 50.0383 14.6923C50.0383 14.906 49.2996 15.3333 48.3761 17.0427C48.3761 13.4102 48.5608 11.7008 50.223 9.13673C51.687 7.641 52.8086 11.2735 52.822 16.188Z" fill="#D9D9D9"/>
<path d="M48.5608 23.8803C49.4842 26.0171 47.4652 25.9816 46.8986 26.0171C46.3321 26.0525 45.6258 22.7832 45.4211 20.8889C45.2365 19.1795 45.4211 16.829 47.0833 15.1196C47.6499 15.0842 46.8683 19.9641 48.5608 23.8803Z" fill="#D9D9D9"/>
<path d="M52.6239 13.1966C52.6239 17.2564 51.7693 19.6068 50.0353 19.6068C54.4708 15.1196 50.5924 12.3419 48.0068 12.7692C50.223 9.77775 49.2996 8.28203 49.4812 7C50.22 7.64103 52.6239 9.30224 52.6239 13.1966Z" fill="#D9D9D9"/>
<path d="M56.687 28.3675C56.687 29.7836 53.3626 31.5726 51.5158 32C49.9858 32 52.6239 31.5726 52.4392 29.2222C52.6239 26.6581 48.9302 22.1709 50.5924 23.453C53.9167 28.1538 56.687 26.9514 56.687 28.3675Z" fill="#D9D9D9"/>
<path d="M55.5789 29.8632C55.7636 29.8632 54.8401 30.7179 53.5473 31.1453C54.1014 30.2906 52.0698 26.8718 51.1464 25.1624C50.9617 24.5214 53.732 26.6581 54.1014 28.7949C54.6554 30.2906 55.5789 26.677 55.5789 29.8632Z" fill="#D9D9D9"/>
<path d="M55.7636 17.4701C57.0564 20.2479 58.1645 21.9573 57.9798 24.735C53.178 23.2393 50.9617 23.0256 49.8536 19.6068C48.7455 14.2649 52.2545 15.9744 52.0698 15.1196C55.9482 20.8889 51.5158 14.6923 55.7636 17.4701Z" fill="#D9D9D9"/>
<path d="M57.6104 22.1709C57.7951 25.5897 58.1645 26.6581 56.8717 26.8718C54.4708 26.2308 50.777 21.916 50.777 18.9658C52.8086 16.188 53.3626 13.4102 55.5789 12.5555C53.178 19.8205 57.4257 18.7521 57.6104 22.1709Z" fill="#D9D9D9"/>
<path d="M56.5023 26.6581C57.7951 27.2991 57.0564 29.2222 54.1014 30.9316C52.9794 30.9316 55.2095 29.2222 54.2861 26.0171C52.9933 23.8803 52.2545 23.2393 52.2545 20.6752C53.3765 20.6752 56.5023 24.5339 56.5023 26.6581Z" fill="#D9D9D9"/>
<path d="M52.8086 15.547C51.5158 15.3333 51.3311 12.5555 48.9302 16.188C46.714 20.0342 45.4211 23.2141 45.4211 18.9658C46.1599 14.4786 48.5608 12.3419 49.4842 9.77775C50.0229 8.28203 52.9933 9.13673 52.8086 15.547Z" fill="#D9D9D9"/>
<path d="M57.4257 22.812C55.0248 22.5983 54.0959 22.3846 53.178 22.3846C52.26 22.3846 53.178 19.4029 53.178 17.0427C53.178 14.6825 55.2095 12.7692 55.5789 12.5555C53.9167 17.0427 59.2726 22.812 57.4257 22.812Z" fill="#D9D9D9"/>
<path d="M57.9798 23.8803C57.9798 27.9402 56.3176 29.0085 56.3176 29.2222C52.4392 32.4274 58.1645 25.3761 54.2861 25.3761C48.1914 19.3931 49.4842 18.3248 51.1464 17.8974C53.5473 17.8974 57.241 19.3932 57.9798 23.8803Z" fill="#D9D9D9"/>
<path d="M44.4977 25.5897C46.764 26.6581 46.1738 29.2222 45.0518 29.2222C42.6509 26.0171 43.0208 22.2369 43.0202 22.3846C43.5743 18.1111 43.9437 18.9658 43.9437 19.3931C44.1283 21.7436 44.9172 22.1709 44.4977 25.5897Z" fill="#D9D9D9"/>
</g>
</svg>
