<svg width="125" height="70" viewBox="0 0 125 70" fill="none" xmlns="http://www.w3.org/2000/svg">
<rect width="125" height="70" fill="#0B3F47"/>
<path d="M32.8245 35.28C32.4911 34.8333 32.1311 34.5233 31.7445 34.35C31.3578 34.17 30.9245 34.08 30.4445 34.08C29.5045 34.08 28.7811 34.4167 28.2745 35.09C27.7678 35.7633 27.5145 36.7233 27.5145 37.97C27.5145 38.63 27.5711 39.1967 27.6845 39.67C27.7978 40.1367 27.9645 40.5233 28.1845 40.83C28.4045 41.13 28.6745 41.35 28.9945 41.49C29.3145 41.63 29.6778 41.7 30.0845 41.7C30.6711 41.7 31.1811 41.5667 31.6145 41.3C32.0545 41.0333 32.4578 40.6567 32.8245 40.17V35.28ZM34.6045 28.27V43H33.5445C33.2911 43 33.1311 42.8767 33.0645 42.63L32.9045 41.4C32.4711 41.92 31.9778 42.34 31.4245 42.66C30.8711 42.98 30.2311 43.14 29.5045 43.14C28.9245 43.14 28.3978 43.03 27.9245 42.81C27.4511 42.5833 27.0478 42.2533 26.7145 41.82C26.3811 41.3867 26.1245 40.8467 25.9445 40.2C25.7645 39.5533 25.6745 38.81 25.6745 37.97C25.6745 37.2233 25.7745 36.53 25.9745 35.89C26.1745 35.2433 26.4611 34.6833 26.8345 34.21C27.2078 33.7367 27.6645 33.3667 28.2045 33.1C28.7511 32.8267 29.3645 32.69 30.0445 32.69C30.6645 32.69 31.1945 32.7967 31.6345 33.01C32.0811 33.2167 32.4778 33.5067 32.8245 33.88V28.27H34.6045ZM44.1959 36.83C44.1959 36.4167 44.1359 36.04 44.0159 35.7C43.9025 35.3533 43.7325 35.0567 43.5059 34.81C43.2859 34.5567 43.0159 34.3633 42.6959 34.23C42.3759 34.09 42.0125 34.02 41.6059 34.02C40.7525 34.02 40.0759 34.27 39.5759 34.77C39.0825 35.2633 38.7759 35.95 38.6559 36.83H44.1959ZM45.6359 41.58C45.4159 41.8467 45.1525 42.08 44.8459 42.28C44.5392 42.4733 44.2092 42.6333 43.8559 42.76C43.5092 42.8867 43.1492 42.98 42.7759 43.04C42.4025 43.1067 42.0325 43.14 41.6659 43.14C40.9659 43.14 40.3192 43.0233 39.7259 42.79C39.1392 42.55 38.6292 42.2033 38.1959 41.75C37.7692 41.29 37.4359 40.7233 37.1959 40.05C36.9559 39.3767 36.8359 38.6033 36.8359 37.73C36.8359 37.0233 36.9425 36.3633 37.1559 35.75C37.3759 35.1367 37.6892 34.6067 38.0959 34.16C38.5025 33.7067 38.9992 33.3533 39.5859 33.1C40.1725 32.84 40.8325 32.71 41.5659 32.71C42.1725 32.71 42.7325 32.8133 43.2459 33.02C43.7659 33.22 44.2125 33.5133 44.5859 33.9C44.9659 34.28 45.2625 34.7533 45.4759 35.32C45.6892 35.88 45.7959 36.52 45.7959 37.24C45.7959 37.52 45.7659 37.7067 45.7059 37.8C45.6459 37.8933 45.5325 37.94 45.3659 37.94H38.5959C38.6159 38.58 38.7025 39.1367 38.8559 39.61C39.0159 40.0833 39.2359 40.48 39.5159 40.8C39.7959 41.1133 40.1292 41.35 40.5159 41.51C40.9025 41.6633 41.3359 41.74 41.8159 41.74C42.2625 41.74 42.6459 41.69 42.9659 41.59C43.2925 41.4833 43.5725 41.37 43.8059 41.25C44.0392 41.13 44.2325 41.02 44.3859 40.92C44.5459 40.8133 44.6825 40.76 44.7959 40.76C44.9425 40.76 45.0559 40.8167 45.1359 40.93L45.6359 41.58ZM47.9823 43V32.87H49.0523C49.3056 32.87 49.4623 32.9933 49.5223 33.24L49.6523 34.28C50.0256 33.82 50.4456 33.4433 50.9123 33.15C51.3789 32.8567 51.9189 32.71 52.5323 32.71C53.2123 32.71 53.7623 32.9 54.1823 33.28C54.6089 33.66 54.9156 34.1733 55.1023 34.82C55.2489 34.4533 55.4356 34.1367 55.6623 33.87C55.8956 33.6033 56.1556 33.3833 56.4423 33.21C56.7289 33.0367 57.0323 32.91 57.3523 32.83C57.6789 32.75 58.0089 32.71 58.3423 32.71C58.8756 32.71 59.3489 32.7967 59.7623 32.97C60.1823 33.1367 60.5356 33.3833 60.8223 33.71C61.1156 34.0367 61.3389 34.44 61.4923 34.92C61.6456 35.3933 61.7223 35.9367 61.7223 36.55V43H59.9323V36.55C59.9323 35.7567 59.7589 35.1567 59.4123 34.75C59.0656 34.3367 58.5656 34.13 57.9123 34.13C57.6189 34.13 57.3389 34.1833 57.0723 34.29C56.8123 34.39 56.5823 34.54 56.3823 34.74C56.1823 34.94 56.0223 35.1933 55.9023 35.5C55.7889 35.8 55.7323 36.15 55.7323 36.55V43H53.9423V36.55C53.9423 35.7367 53.7789 35.13 53.4523 34.73C53.1256 34.33 52.6489 34.13 52.0223 34.13C51.5823 34.13 51.1756 34.25 50.8023 34.49C50.4289 34.7233 50.0856 35.0433 49.7723 35.45V43H47.9823ZM72.9137 32.87L67.2637 45.99C67.2037 46.1233 67.127 46.23 67.0337 46.31C66.947 46.39 66.8103 46.43 66.6237 46.43H65.3037L67.1537 42.41L62.9737 32.87H64.5137C64.667 32.87 64.787 32.91 64.8737 32.99C64.967 33.0633 65.0303 33.1467 65.0637 33.24L67.7737 39.62C67.8803 39.9 67.9703 40.1933 68.0437 40.5C68.137 40.1867 68.237 39.89 68.3437 39.61L70.9737 33.24C71.0137 33.1333 71.0803 33.0467 71.1737 32.98C71.2737 32.9067 71.3837 32.87 71.5037 32.87H72.9137ZM76.3662 32.87V43H74.5862V32.87H76.3662ZM76.7462 29.69C76.7462 29.8633 76.7095 30.0267 76.6362 30.18C76.5695 30.3267 76.4762 30.46 76.3562 30.58C76.2428 30.6933 76.1062 30.7833 75.9462 30.85C75.7928 30.9167 75.6295 30.95 75.4562 30.95C75.2828 30.95 75.1195 30.9167 74.9662 30.85C74.8195 30.7833 74.6895 30.6933 74.5762 30.58C74.4628 30.46 74.3728 30.3267 74.3062 30.18C74.2395 30.0267 74.2062 29.8633 74.2062 29.69C74.2062 29.5167 74.2395 29.3533 74.3062 29.2C74.3728 29.04 74.4628 28.9033 74.5762 28.79C74.6895 28.67 74.8195 28.5767 74.9662 28.51C75.1195 28.4433 75.2828 28.41 75.4562 28.41C75.6295 28.41 75.7928 28.4433 75.9462 28.51C76.1062 28.5767 76.2428 28.67 76.3562 28.79C76.4762 28.9033 76.5695 29.04 76.6362 29.2C76.7095 29.3533 76.7462 29.5167 76.7462 29.69ZM80.9709 34.34C81.1909 34.0933 81.4242 33.87 81.6709 33.67C81.9175 33.47 82.1775 33.3 82.4509 33.16C82.7309 33.0133 83.0242 32.9033 83.3309 32.83C83.6442 32.75 83.9809 32.71 84.3409 32.71C84.8942 32.71 85.3809 32.8033 85.8009 32.99C86.2275 33.17 86.5809 33.43 86.8609 33.77C87.1475 34.1033 87.3642 34.5067 87.5109 34.98C87.6575 35.4533 87.7309 35.9767 87.7309 36.55V43H85.9409V36.55C85.9409 35.7833 85.7642 35.19 85.4109 34.77C85.0642 34.3433 84.5342 34.13 83.8209 34.13C83.2942 34.13 82.8009 34.2567 82.3409 34.51C81.8875 34.7633 81.4675 35.1067 81.0809 35.54V43H79.2909V32.87H80.3609C80.6142 32.87 80.7709 32.9933 80.8309 33.24L80.9709 34.34ZM92.1232 34.34C92.3432 34.0933 92.5765 33.87 92.8232 33.67C93.0699 33.47 93.3299 33.3 93.6032 33.16C93.8832 33.0133 94.1765 32.9033 94.4832 32.83C94.7965 32.75 95.1332 32.71 95.4932 32.71C96.0465 32.71 96.5332 32.8033 96.9532 32.99C97.3799 33.17 97.7332 33.43 98.0132 33.77C98.2999 34.1033 98.5165 34.5067 98.6632 34.98C98.8099 35.4533 98.8832 35.9767 98.8832 36.55V43H97.0932V36.55C97.0932 35.7833 96.9165 35.19 96.5632 34.77C96.2165 34.3433 95.6865 34.13 94.9732 34.13C94.4465 34.13 93.9532 34.2567 93.4932 34.51C93.0399 34.7633 92.6199 35.1067 92.2332 35.54V43H90.4432V32.87H91.5132C91.7665 32.87 91.9232 32.9933 91.9832 33.24L92.1232 34.34Z" fill="white"/>
<line y1="-0.5" x2="99.9955" y2="-0.5" transform="matrix(0.999975 0.00708843 -0.0225982 0.999745 12.5 24.5)" stroke="white"/>
<line y1="-0.5" x2="99.9955" y2="-0.5" transform="matrix(0.999975 0.00708843 -0.0225982 0.999745 12.5 49)" stroke="white"/>
<g style="mix-blend-mode:soft-light">
<path d="M60.1285 18.5897C60.1285 20.0247 60.9165 21.8376 59.3405 21.188C57.4909 21.188 55.7946 20.2137 55.7946 18.5897C55.7946 17.1547 57.2939 15.9914 59.1435 15.9914C60.9931 15.9914 60.1285 17.1547 60.1285 18.5897Z" fill="#D9D9D9"/>
<path d="M62.2955 20.3761C62.2955 21.0039 60.9165 21.6752 59.7345 21.5128C58.5377 21.5128 56.3856 20.5384 57.3706 20.3761C57.3706 19.7482 58.7347 19.2393 59.9315 19.2393C61.1283 19.2393 62.6895 18.5897 62.2955 20.3761Z" fill="#D9D9D9"/>
<path d="M57.9616 16.8034C57.9616 18.2384 57.5676 19.0769 56.0618 19.2379C56.3856 20.5385 54.8096 17.7778 54.6126 16.641C54.6126 15.206 54.3453 13.3945 55.2036 13.3931C55.7946 15.3419 56.3153 15.6681 57.9616 16.8034Z" fill="#D9D9D9"/>
<path d="M62.2594 19.5639C61.6684 20.2134 61.248 20.2134 60.4864 20.2134C59.7248 20.2134 59.1074 19.6318 59.1074 18.9143C59.1074 18.1968 59.3308 16.9656 60.0924 16.9656C59.5375 15.0171 62.6534 19.7262 62.2594 19.5639Z" fill="#D9D9D9"/>
<path d="M59.3405 14.8547C58.6304 16.3779 58.1991 12.5963 57.5676 12.2564C56.8066 12.0153 56.5826 11.0686 57.5675 9.65809C59.1552 7.38459 59.7345 6.57262 60.3255 7.38459C61.7045 8.35894 58.5525 10.6325 59.3405 14.8547Z" fill="#D9D9D9"/>
<path d="M64.4768 9.98289C60.3255 13.2308 60.9165 11.282 61.5075 8.84614C61.5075 9.00853 60.7195 9.33332 59.7345 10.6325C59.7345 7.87178 59.9315 6.57263 61.7045 4.62391C63.2661 3.48716 64.4625 6.24785 64.4768 9.98289Z" fill="#D9D9D9"/>
<path d="M59.9315 15.829C60.9165 17.453 58.7629 17.426 58.1585 17.453C57.5542 17.4799 56.8009 14.9952 56.5826 13.5555C56.3856 12.2564 56.5826 10.4701 58.3555 9.17092C58.9599 9.14397 58.1262 12.8527 59.9315 15.829Z" fill="#D9D9D9"/>
<path d="M64.2655 7.70939C64.2655 10.7949 63.3539 12.5812 61.5043 12.5812C66.2355 9.17093 62.0985 7.05981 59.3405 7.3846C61.7045 5.11109 60.7195 3.97434 60.9133 3C61.7013 3.48718 64.2655 4.7497 64.2655 7.70939Z" fill="#D9D9D9"/>
<path d="M68.5994 19.2393C68.5994 20.3156 65.0535 21.6752 63.0835 22C61.4515 22 64.2655 21.6752 64.0685 19.8889C64.2655 17.9402 60.3255 14.5299 62.0985 15.5043C65.6445 19.0769 68.5994 18.1631 68.5994 19.2393Z" fill="#D9D9D9"/>
<path d="M67.4175 20.3761C67.6145 20.3761 66.6295 21.0256 65.2505 21.3504C65.8415 20.7009 63.6745 18.1026 62.6895 16.8034C62.4925 16.3162 65.4475 17.9402 65.8415 19.5641C66.4325 20.7009 67.4175 17.9545 67.4175 20.3761Z" fill="#D9D9D9"/>
<path d="M67.6145 10.9573C68.9934 13.0684 70.1754 14.3675 69.9784 16.4786C64.8565 15.3419 62.4925 15.1795 61.3105 12.5812C60.1285 8.52135 63.8715 9.82051 63.6745 9.17093C67.8115 13.5556 63.0835 8.84615 67.6145 10.9573Z" fill="#D9D9D9"/>
<path d="M69.5844 14.5299C69.7814 17.1282 70.1754 17.9402 68.7964 18.1026C66.2355 17.6154 62.2955 14.3362 62.2955 12.094C64.4625 9.98289 65.0535 7.87178 67.4175 7.22221C64.8565 12.7436 69.3874 11.9316 69.5844 14.5299Z" fill="#D9D9D9"/>
<path d="M68.4025 17.9402C69.7814 18.4273 68.9934 19.8889 65.8415 21.188C64.6447 21.188 67.0235 19.8889 66.0385 17.453C64.6595 15.8291 63.8715 15.3419 63.8715 13.3932C65.0683 13.3932 68.4025 16.3258 68.4025 17.9402Z" fill="#D9D9D9"/>
<path d="M64.4625 9.49571C63.0835 9.33332 62.8865 7.22221 60.3255 9.98289C57.9615 12.906 56.5826 15.3228 56.5826 12.094C57.3706 8.68375 59.9315 7.05981 60.9165 5.11109C61.4911 3.97434 64.6595 4.62391 64.4625 9.49571Z" fill="#D9D9D9"/>
<path d="M69.3874 15.0171C66.8265 14.8547 65.8357 14.6923 64.8565 14.6923C63.8773 14.6923 64.8565 12.4262 64.8565 10.6325C64.8565 8.83872 67.0235 7.3846 67.4175 7.22221C65.6445 10.6325 71.3574 15.0171 69.3874 15.0171Z" fill="#D9D9D9"/>
<path d="M69.9784 15.8291C69.9784 18.9145 68.2055 19.7265 68.2055 19.8889C64.0685 22.3248 70.1754 16.9658 66.0385 16.9658C59.5375 12.4188 60.9165 11.6068 62.6895 11.282C65.2505 11.282 69.1904 12.4188 69.9784 15.8291Z" fill="#D9D9D9"/>
<path d="M55.5976 17.1282C58.015 17.9402 57.3854 19.8889 56.1886 19.8889C53.6276 17.453 54.0221 14.5801 54.0216 14.6923C54.6126 11.4444 55.0066 12.094 55.0066 12.4188C55.2036 14.2051 56.045 14.5299 55.5976 17.1282Z" fill="#D9D9D9"/>
</g>
</svg>
