<svg width="100" height="100" viewBox="0 0 100 100" fill="none" xmlns="http://www.w3.org/2000/svg">
<rect width="100" height="100" fill="#0B3F47"/>
<g style="mix-blend-mode:color-burn">
<path d="M43.2159 73.4615C43.2159 79.5791 46.0724 87.3077 40.3594 84.5384C33.6547 84.5384 27.5053 80.3846 27.5053 73.4615C27.5053 67.3439 32.9406 62.3846 39.6453 62.3846C46.3501 62.3846 43.2159 67.3439 43.2159 73.4615Z" fill="#D9D9D9"/>
<path d="M51.0712 81.0769C51.0712 83.7533 46.0724 86.6153 41.7877 85.923C37.4493 85.923 29.6477 81.7692 33.2183 81.0769C33.2183 78.4004 38.1634 76.2307 42.5018 76.2307C46.8402 76.2307 52.4995 73.4615 51.0712 81.0769Z" fill="#D9D9D9"/>
<path d="M35.3606 65.8461C35.3606 71.9637 33.9324 75.5384 28.474 76.2248C29.6477 81.7692 23.9347 70 23.2206 65.1538C23.2206 59.0362 22.2519 51.3136 25.363 51.3076C27.5053 59.6153 29.3931 61.0059 35.3606 65.8461Z" fill="#D9D9D9"/>
<path d="M50.9404 77.6143C48.798 80.3836 47.2741 80.3836 44.5133 80.3836C41.7525 80.3836 39.5145 77.9039 39.5145 74.8451C39.5145 71.7863 40.3243 66.5374 43.0851 66.5374C41.0736 58.2307 52.3686 78.3066 50.9404 77.6143Z" fill="#D9D9D9"/>
<path d="M40.3595 57.5384C37.7852 64.0321 36.2217 47.9106 33.9324 46.4614C31.1737 45.4337 30.3618 41.3975 33.9324 35.3845C39.6878 25.6922 41.7877 22.2306 43.93 25.6922C48.9289 29.846 37.503 39.5384 40.3595 57.5384Z" fill="#D9D9D9"/>
<path d="M58.9785 36.7692C43.93 50.6153 46.0724 42.3076 48.2147 31.923C48.2147 32.6153 45.3583 33.9999 41.7877 39.5384C41.7877 27.7692 42.5018 22.2307 48.9289 13.923C54.5898 9.07684 58.9265 20.8461 58.9785 36.7692Z" fill="#D9D9D9"/>
<path d="M42.5017 61.6923C46.0723 68.6153 38.2655 68.5005 36.0747 68.6154C33.884 68.7302 31.1531 58.1376 30.3617 51.9999C29.6477 46.4615 30.3618 38.8461 36.7888 33.3076C38.9795 33.1927 35.9576 49.0037 42.5017 61.6923Z" fill="#D9D9D9"/>
<path d="M58.2124 27.0769C58.2124 40.2307 54.9078 47.8461 48.2031 47.8461C65.3536 33.3076 50.3571 24.3076 40.3594 25.6922C48.9289 15.9999 45.3583 11.1538 46.0607 7C48.9172 9.07692 58.2124 14.4593 58.2124 27.0769Z" fill="#D9D9D9"/>
<path d="M73.923 76.2308C73.923 80.819 61.0689 86.6154 53.9277 88C48.0117 88 58.2124 86.6154 57.4983 79C58.2124 70.6923 43.93 56.1538 50.3571 60.3077C63.2112 75.5384 73.923 71.6425 73.923 76.2308Z" fill="#D9D9D9"/>
<path d="M69.6383 81.0769C70.3524 81.0769 66.7818 83.8461 61.783 85.2308C63.9253 82.4615 56.07 71.3846 52.4995 65.8461C51.7853 63.7692 62.4971 70.6923 63.9253 77.6154C66.0677 82.4616 69.6383 70.7534 69.6383 81.0769Z" fill="#D9D9D9"/>
<path d="M70.3524 40.9231C75.3513 49.9231 79.636 55.4615 78.9219 64.4615C60.3548 59.6153 51.7854 58.9231 47.5006 47.8461C43.2159 30.5384 56.7842 36.0769 56.0701 33.3077C71.0666 52 53.9277 31.923 70.3524 40.9231Z" fill="#D9D9D9"/>
<path d="M77.4936 56.1538C78.2077 67.2307 79.636 70.6923 74.6371 71.3846C65.3536 69.3077 51.0712 55.328 51.0712 45.7692C58.9265 36.7692 61.0689 27.7692 69.6383 24.9999C60.3548 48.5384 76.7795 45.0769 77.4936 56.1538Z" fill="#D9D9D9"/>
<path d="M73.2089 70.6923C78.2077 72.7692 75.3512 79 63.9253 84.5384C59.587 84.5384 68.2101 79 64.6395 68.6154C59.6406 61.6923 56.7842 59.6153 56.7842 51.3076C61.1225 51.3076 73.2089 63.81 73.2089 70.6923Z" fill="#D9D9D9"/>
<path d="M58.9265 34.6922C53.9277 33.9999 53.2136 24.9999 43.93 36.7692C35.3606 49.2307 30.3618 59.5338 30.3618 45.7692C33.2183 31.2307 42.5018 24.3076 46.0724 15.9999C48.1552 11.1538 59.6406 13.923 58.9265 34.6922Z" fill="#D9D9D9"/>
<path d="M76.7795 58.2307C67.4959 57.5384 63.9043 56.8461 60.3548 56.8461C56.8052 56.8461 60.3548 47.1854 60.3548 39.5384C60.3548 31.8914 68.21 25.6922 69.6383 24.9999C63.2112 39.5384 83.9207 58.2307 76.7795 58.2307Z" fill="#D9D9D9"/>
<path d="M78.9218 61.6923C78.9218 74.8461 72.4948 78.3077 72.4948 79C57.4982 89.3846 79.636 66.5384 64.6395 66.5384C41.0736 47.1538 46.0724 43.6923 52.4995 42.3076C61.783 42.3076 76.0653 47.1538 78.9218 61.6923Z" fill="#D9D9D9"/>
<path d="M26.7912 67.2307C35.5543 70.6923 33.2719 78.9999 28.9335 78.9999C19.65 68.6153 21.0803 56.3676 21.0782 56.8461C23.2206 42.9999 24.6488 45.7692 24.6488 47.1537C25.3629 54.7692 28.4131 56.1538 26.7912 67.2307Z" fill="#D9D9D9"/>
</g>
</svg>
