<svg width="102" height="50" viewBox="0 0 102 50" fill="none" xmlns="http://www.w3.org/2000/svg">
<path d="M21.3279 33.9162C20.9946 33.4695 20.6346 33.1595 20.2479 32.9862C19.8613 32.8062 19.4279 32.7162 18.9479 32.7162C18.0079 32.7162 17.2846 33.0529 16.7779 33.7262C16.2713 34.3995 16.0179 35.3595 16.0179 36.6062C16.0179 37.2662 16.0746 37.8329 16.1879 38.3062C16.3013 38.7729 16.4679 39.1595 16.6879 39.4662C16.9079 39.7662 17.1779 39.9862 17.4979 40.1262C17.8179 40.2662 18.1813 40.3362 18.5879 40.3362C19.1746 40.3362 19.6846 40.2029 20.1179 39.9362C20.5579 39.6695 20.9613 39.2929 21.3279 38.8062V33.9162ZM23.1079 26.9062V41.6362H22.0479C21.7946 41.6362 21.6346 41.5129 21.5679 41.2662L21.4079 40.0362C20.9746 40.5562 20.4813 40.9762 19.9279 41.2962C19.3746 41.6162 18.7346 41.7762 18.0079 41.7762C17.4279 41.7762 16.9013 41.6662 16.4279 41.4462C15.9546 41.2195 15.5513 40.8895 15.2179 40.4562C14.8846 40.0229 14.6279 39.4829 14.4479 38.8362C14.2679 38.1895 14.1779 37.4462 14.1779 36.6062C14.1779 35.8595 14.2779 35.1662 14.4779 34.5262C14.6779 33.8795 14.9646 33.3195 15.3379 32.8462C15.7113 32.3729 16.1679 32.0029 16.7079 31.7362C17.2546 31.4629 17.8679 31.3262 18.5479 31.3262C19.1679 31.3262 19.6979 31.4329 20.1379 31.6462C20.5846 31.8529 20.9813 32.1429 21.3279 32.5162V26.9062H23.1079ZM32.6993 35.4662C32.6993 35.0529 32.6393 34.6762 32.5193 34.3362C32.406 33.9895 32.236 33.6929 32.0093 33.4462C31.7893 33.1929 31.5193 32.9995 31.1993 32.8662C30.8793 32.7262 30.516 32.6562 30.1093 32.6562C29.256 32.6562 28.5793 32.9062 28.0793 33.4062C27.586 33.8995 27.2793 34.5862 27.1593 35.4662H32.6993ZM34.1393 40.2162C33.9193 40.4829 33.656 40.7162 33.3493 40.9162C33.0427 41.1095 32.7127 41.2695 32.3593 41.3962C32.0127 41.5229 31.6527 41.6162 31.2793 41.6762C30.906 41.7429 30.536 41.7762 30.1693 41.7762C29.4693 41.7762 28.8227 41.6595 28.2293 41.4262C27.6427 41.1862 27.1327 40.8395 26.6993 40.3862C26.2727 39.9262 25.9393 39.3595 25.6993 38.6862C25.4593 38.0129 25.3393 37.2395 25.3393 36.3662C25.3393 35.6595 25.446 34.9995 25.6593 34.3862C25.8793 33.7729 26.1927 33.2429 26.5993 32.7962C27.006 32.3429 27.5027 31.9895 28.0893 31.7362C28.676 31.4762 29.336 31.3462 30.0693 31.3462C30.676 31.3462 31.236 31.4495 31.7493 31.6562C32.2693 31.8562 32.716 32.1495 33.0893 32.5362C33.4693 32.9162 33.766 33.3895 33.9793 33.9562C34.1927 34.5162 34.2993 35.1562 34.2993 35.8762C34.2993 36.1562 34.2693 36.3429 34.2093 36.4362C34.1493 36.5295 34.036 36.5762 33.8693 36.5762H27.0993C27.1193 37.2162 27.206 37.7729 27.3593 38.2462C27.5193 38.7195 27.7393 39.1162 28.0193 39.4362C28.2993 39.7495 28.6327 39.9862 29.0193 40.1462C29.406 40.2995 29.8393 40.3762 30.3193 40.3762C30.766 40.3762 31.1493 40.3262 31.4693 40.2262C31.796 40.1195 32.076 40.0062 32.3093 39.8862C32.5427 39.7662 32.736 39.6562 32.8893 39.5562C33.0493 39.4495 33.186 39.3962 33.2993 39.3962C33.446 39.3962 33.5593 39.4529 33.6393 39.5662L34.1393 40.2162ZM36.4858 41.6362V31.5062H37.5558C37.8091 31.5062 37.9658 31.6295 38.0258 31.8762L38.1558 32.9162C38.5291 32.4562 38.9491 32.0795 39.4158 31.7862C39.8824 31.4929 40.4224 31.3462 41.0358 31.3462C41.7158 31.3462 42.2658 31.5362 42.6858 31.9162C43.1124 32.2962 43.4191 32.8095 43.6058 33.4562C43.7524 33.0895 43.9391 32.7729 44.1658 32.5062C44.3991 32.2395 44.6591 32.0195 44.9458 31.8462C45.2324 31.6729 45.5358 31.5462 45.8558 31.4662C46.1824 31.3862 46.5124 31.3462 46.8458 31.3462C47.3791 31.3462 47.8524 31.4329 48.2658 31.6062C48.6858 31.7729 49.0391 32.0195 49.3258 32.3462C49.6191 32.6729 49.8424 33.0762 49.9958 33.5562C50.1491 34.0295 50.2258 34.5729 50.2258 35.1862V41.6362H48.4358V35.1862C48.4358 34.3929 48.2624 33.7929 47.9158 33.3862C47.5691 32.9729 47.0691 32.7662 46.4158 32.7662C46.1224 32.7662 45.8424 32.8195 45.5758 32.9262C45.3158 33.0262 45.0858 33.1762 44.8858 33.3762C44.6858 33.5762 44.5258 33.8295 44.4058 34.1362C44.2924 34.4362 44.2358 34.7862 44.2358 35.1862V41.6362H42.4458V35.1862C42.4458 34.3729 42.2824 33.7662 41.9558 33.3662C41.6291 32.9662 41.1524 32.7662 40.5258 32.7662C40.0858 32.7662 39.6791 32.8862 39.3058 33.1262C38.9324 33.3595 38.5891 33.6795 38.2758 34.0862V41.6362H36.4858ZM61.4172 31.5062L55.7672 44.6262C55.7072 44.7595 55.6305 44.8662 55.5372 44.9462C55.4505 45.0262 55.3138 45.0662 55.1272 45.0662H53.8072L55.6572 41.0462L51.4772 31.5062H53.0172C53.1705 31.5062 53.2905 31.5462 53.3772 31.6262C53.4705 31.6995 53.5338 31.7829 53.5672 31.8762L56.2772 38.2562C56.3838 38.5362 56.4738 38.8295 56.5472 39.1362C56.6405 38.8229 56.7405 38.5262 56.8472 38.2462L59.4772 31.8762C59.5172 31.7695 59.5838 31.6829 59.6772 31.6162C59.7772 31.5429 59.8872 31.5062 60.0072 31.5062H61.4172ZM64.8697 31.5062V41.6362H63.0897V31.5062H64.8697ZM65.2497 28.3262C65.2497 28.4995 65.213 28.6629 65.1397 28.8162C65.073 28.9629 64.9797 29.0962 64.8597 29.2162C64.7463 29.3295 64.6097 29.4195 64.4497 29.4862C64.2963 29.5529 64.133 29.5862 63.9597 29.5862C63.7863 29.5862 63.623 29.5529 63.4697 29.4862C63.323 29.4195 63.193 29.3295 63.0797 29.2162C62.9663 29.0962 62.8763 28.9629 62.8097 28.8162C62.743 28.6629 62.7097 28.4995 62.7097 28.3262C62.7097 28.1529 62.743 27.9895 62.8097 27.8362C62.8763 27.6762 62.9663 27.5395 63.0797 27.4262C63.193 27.3062 63.323 27.2129 63.4697 27.1462C63.623 27.0795 63.7863 27.0462 63.9597 27.0462C64.133 27.0462 64.2963 27.0795 64.4497 27.1462C64.6097 27.2129 64.7463 27.3062 64.8597 27.4262C64.9797 27.5395 65.073 27.6762 65.1397 27.8362C65.213 27.9895 65.2497 28.1529 65.2497 28.3262ZM69.4743 32.9762C69.6943 32.7295 69.9277 32.5062 70.1743 32.3062C70.421 32.1062 70.681 31.9362 70.9543 31.7962C71.2343 31.6495 71.5277 31.5395 71.8343 31.4662C72.1477 31.3862 72.4843 31.3462 72.8443 31.3462C73.3977 31.3462 73.8843 31.4395 74.3043 31.6262C74.731 31.8062 75.0843 32.0662 75.3643 32.4062C75.651 32.7395 75.8677 33.1429 76.0143 33.6162C76.161 34.0895 76.2343 34.6129 76.2343 35.1862V41.6362H74.4443V35.1862C74.4443 34.4195 74.2677 33.8262 73.9143 33.4062C73.5677 32.9795 73.0377 32.7662 72.3243 32.7662C71.7977 32.7662 71.3043 32.8929 70.8443 33.1462C70.391 33.3995 69.971 33.7429 69.5843 34.1762V41.6362H67.7943V31.5062H68.8643C69.1177 31.5062 69.2743 31.6295 69.3343 31.8762L69.4743 32.9762ZM80.6267 32.9762C80.8467 32.7295 81.08 32.5062 81.3267 32.3062C81.5734 32.1062 81.8334 31.9362 82.1067 31.7962C82.3867 31.6495 82.68 31.5395 82.9867 31.4662C83.3 31.3862 83.6367 31.3462 83.9967 31.3462C84.55 31.3462 85.0367 31.4395 85.4567 31.6262C85.8834 31.8062 86.2367 32.0662 86.5167 32.4062C86.8034 32.7395 87.02 33.1429 87.1667 33.6162C87.3134 34.0895 87.3867 34.6129 87.3867 35.1862V41.6362H85.5967V35.1862C85.5967 34.4195 85.42 33.8262 85.0667 33.4062C84.72 32.9795 84.19 32.7662 83.4767 32.7662C82.95 32.7662 82.4567 32.8929 81.9967 33.1462C81.5434 33.3995 81.1234 33.7429 80.7367 34.1762V41.6362H78.9467V31.5062H80.0167C80.27 31.5062 80.4267 31.6295 80.4867 31.8762L80.6267 32.9762Z" fill="#0B3F47"/>
<line x1="0.99861" y1="48.7724" x2="100.998" y2="48.4944" stroke="#0B3F47"/>
<line y1="-0.5" x2="100.003" y2="-0.5" transform="matrix(0.999973 0.00727632 -0.0220149 0.999758 1 21.5567)" stroke="#0B3F47"/>
<path d="M49.1319 16.003C49.1319 17.476 49.9199 19.337 48.3438 18.6702C46.4941 18.6702 44.7976 17.67 44.7976 16.003C44.7976 14.53 46.2971 13.3358 48.1468 13.3358C49.9965 13.3358 49.1319 14.53 49.1319 16.003Z" fill="#0B3F47"/>
<path d="M51.299 17.8367C51.299 18.4811 49.9199 19.1703 48.7379 19.0036C47.541 19.0036 45.3887 18.0034 46.3737 17.8367C46.3737 17.1922 47.738 16.6698 48.9349 16.6698C50.1317 16.6698 51.693 16.003 51.299 17.8367Z" fill="#0B3F47"/>
<path d="M46.9648 14.1693C46.9648 15.6423 46.5707 16.5031 45.0649 16.6683C45.3887 18.0034 43.8126 15.1695 43.6156 14.0026C43.6156 12.5296 43.3483 10.6701 44.2066 10.6687C44.7976 12.669 45.3184 13.0039 46.9648 14.1693Z" fill="#0B3F47"/>
<path d="M51.2629 17.0029C50.6719 17.6697 50.2515 17.6697 49.4898 17.6697C48.7282 17.6697 48.1107 17.0727 48.1107 16.3361C48.1107 15.5996 48.3341 14.3358 49.0958 14.3358C48.5408 12.3356 51.6569 17.1696 51.2629 17.0029Z" fill="#0B3F47"/>
<path d="M48.3438 12.1689C47.6337 13.7325 47.2023 9.85069 46.5707 9.50176C45.8097 9.25429 45.5857 8.28244 46.5707 6.83459C48.1585 4.50081 48.7379 3.66732 49.3289 4.50081C50.708 5.501 47.5558 7.83478 48.3438 12.1689Z" fill="#0B3F47"/>
<path d="M53.4805 7.168C49.3289 10.502 49.9199 8.50158 50.511 6.00111C50.511 6.16781 49.7229 6.5012 48.7379 7.83479C48.7379 5.00092 48.9349 3.66734 50.708 1.66696C52.2697 0.500074 53.4661 3.33395 53.4805 7.168Z" fill="#0B3F47"/>
<path d="M48.9349 13.1691C49.9199 14.8361 47.7661 14.8084 47.1618 14.8361C46.5574 14.8638 45.804 12.3132 45.5857 10.8354C45.3887 9.50177 45.5857 7.66809 47.3588 6.3345C47.9631 6.30684 47.1294 10.1139 48.9349 13.1691Z" fill="#0B3F47"/>
<path d="M53.2691 4.83422C53.2691 8.00149 52.3575 9.83518 50.5078 9.83518C55.2393 6.33451 51.102 4.16743 48.3438 4.50083C50.708 2.16705 49.7229 1.00017 49.9167 0C50.7048 0.500094 53.2691 1.79609 53.2691 4.83422Z" fill="#0B3F47"/>
<path d="M57.6034 16.6698C57.6034 17.7746 54.0572 19.1703 52.0871 19.5037C50.455 19.5037 53.2691 19.1703 53.0721 17.3366C53.2691 15.3362 49.3289 11.8355 51.102 12.8357C54.6482 16.5031 57.6034 15.565 57.6034 16.6698Z" fill="#0B3F47"/>
<path d="M56.4213 17.8367C56.6183 17.8367 55.6333 18.5035 54.2542 18.8369C54.8452 18.1701 52.6781 15.5029 51.693 14.1693C51.496 13.6692 54.4512 15.3362 54.8452 17.0032C55.4363 18.1701 56.4213 15.3509 56.4213 17.8367Z" fill="#0B3F47"/>
<path d="M56.6183 8.16819C57.9974 10.3353 59.1795 11.6689 58.9825 13.8359C53.8602 12.669 51.496 12.5023 50.314 9.83516C49.1319 5.66771 52.8751 7.00131 52.6781 6.33451C56.8154 10.8354 52.0871 6.00112 56.6183 8.16819Z" fill="#0B3F47"/>
<path d="M58.5885 11.8355C58.7855 14.5027 59.1795 15.3362 57.8004 15.5029C55.2393 15.0028 51.299 11.6367 51.299 9.33507C53.4661 7.168 54.0572 5.00092 56.4213 4.33413C53.8602 10.0019 58.3914 9.16837 58.5885 11.8355Z" fill="#0B3F47"/>
<path d="M57.4064 15.3362C58.7855 15.8363 57.9974 17.3366 54.8452 18.6702C53.6484 18.6702 56.0273 17.3366 55.0422 14.8361C53.6632 13.1691 52.8751 12.669 52.8751 10.6687C54.072 10.6687 57.4064 13.679 57.4064 15.3362Z" fill="#0B3F47"/>
<path d="M53.4661 6.6679C52.0871 6.5012 51.8901 4.33413 49.3289 7.168C46.9648 10.1686 45.5857 12.6494 45.5857 9.33507C46.3737 5.83441 48.9349 4.16743 49.9199 2.16705C50.4946 1.00017 53.6632 1.66696 53.4661 6.6679Z" fill="#0B3F47"/>
<path d="M58.3914 12.3356C55.8303 12.1689 54.8394 12.0022 53.8602 12.0022C52.8809 12.0022 53.8602 9.67609 53.8602 7.83479C53.8602 5.99349 56.0273 4.50083 56.4213 4.33413C54.6482 7.83479 60.3616 12.3356 58.3914 12.3356Z" fill="#0B3F47"/>
<path d="M58.9825 13.1691C58.9825 16.3364 57.2094 17.1699 57.2094 17.3366C53.0721 19.8371 59.1795 14.336 55.0423 14.336C48.5409 9.66847 49.9199 8.83498 51.693 8.50158C54.2542 8.50157 58.1944 9.66848 58.9825 13.1691Z" fill="#0B3F47"/>
<path d="M44.6006 14.5027C47.0182 15.3362 46.3885 17.3366 45.1916 17.3366C42.6305 14.8361 43.0251 11.887 43.0245 12.0022C43.6155 8.66827 44.0096 9.33507 44.0096 9.66845C44.2066 11.5021 45.0481 11.8355 44.6006 14.5027Z" fill="#0B3F47"/>
</svg>
